<?xml version="1.0" standalone="no"?>
<!DOCTYPE svg PUBLIC "-//W3C//DTD SVG 20010904//EN"
 "http://www.w3.org/TR/2001/REC-SVG-20010904/DTD/svg10.dtd">
<svg version="1.0" xmlns="http://www.w3.org/2000/svg"
 width="560.000000pt" height="560.000000pt" viewBox="0 0 560.000000 560.000000"
 preserveAspectRatio="xMidYMid meet">
<metadata>
Created by potrace 1.11, written by Peter Selinger 2001-2013
</metadata>
<g transform="translate(0.000000,560.000000) scale(0.100000,-0.100000)"
fill="#000000" stroke="none">
<path d="M615 5356 c-173 -43 -314 -184 -361 -361 -30 -109 -11 -267 42 -364
89 -165 252 -261 443 -261 148 0 257 44 357 144 100 100 144 209 144 357 0
234 -146 425 -371 484 -65 18 -185 18 -254 1z"/>
<path d="M4687 5355 c-313 -86 -460 -433 -310 -730 33 -64 134 -165 198 -198
121 -61 274 -75 397 -37 298 92 436 432 291 718 -59 117 -199 223 -331 251
-69 14 -185 13 -245 -4z"/>
<path d="M1502 4829 c-28 -14 -51 -36 -67 -64 l-25 -42 0 -632 c0 -526 -2
-632 -13 -628 -8 3 -39 8 -69 12 l-55 7 -6 146 c-6 163 -18 217 -74 324 -71
137 -191 239 -339 290 -255 88 -490 6 -596 -209 l-33 -68 -3 -1758 c-2 -1694
-2 -1760 16 -1800 28 -63 67 -103 127 -133 47 -22 64 -26 122 -22 105 6 178
52 226 142 22 41 22 42 25 839 l2 797 80 0 80 0 -2 -802 c-3 -753 -4 -806 -21
-848 -30 -72 -28 -82 23 -108 121 -61 288 3 347 133 17 38 18 113 21 1338 1
713 5 1297 9 1297 3 0 35 -5 69 -11 l63 -11 3 -162 c3 -159 4 -163 30 -198 56
-73 -44 -68 1334 -68 l1237 0 43 25 c70 41 84 83 84 257 l0 145 43 7 c23 4 57
9 75 12 l32 6 0 -1279 c0 -1425 -4 -1345 68 -1425 51 -57 121 -88 197 -88 60
0 135 25 150 50 4 6 -4 35 -17 63 l-23 52 -3 808 -3 807 80 0 81 0 2 -797 3
-798 22 -41 c49 -91 119 -136 226 -142 58 -4 75 0 122 22 60 30 99 70 127 133
18 40 18 106 16 1800 l-3 1758 -33 68 c-81 163 -249 258 -432 244 -263 -21
-477 -193 -555 -447 -11 -36 -19 -106 -22 -201 l-6 -147 -51 -6 c-28 -4 -61
-10 -73 -13 l-23 -5 -2 640 -3 640 -30 38 c-17 20 -46 45 -65 55 -33 18 -86
19 -1265 19 l-1230 0 -43 -21z m1078 -625 l0 -196 38 30 c65 52 116 67 222 67
82 0 103 -4 152 -27 32 -15 79 -47 106 -72 159 -149 146 -452 -25 -582 -132
-101 -356 -101 -466 0 l-37 34 0 -49 0 -49 -70 0 -70 0 0 520 0 520 75 0 75 0
0 -196z"/>
<path d="M2715 3956 c-91 -43 -134 -116 -135 -229 0 -79 18 -128 63 -175 51
-54 102 -76 177 -76 77 0 130 24 180 80 46 53 60 93 60 171 0 75 -28 151 -71
190 -70 64 -186 81 -274 39z"/>
</g>
</svg>
